<svg width="24" height="24" fill="none" xmlns="http://www.w3.org/2000/svg"><path d="M2.29 13.99H1v-4h1.29c.81 0 1.54-.49 1.85-1.23l.01-.03a2 2 0 00-.43-2.18l-.91-.91 2.83-2.83.91.91c.58.58 1.44.75 2.19.43l.03-.01C9.52 3.83 10 3.1 10 2.29V1h4v1.29c0 .81.49 1.54 1.23 1.85l.03.01a2 2 0 002.18-.43l.91-.91 2.83 2.83-.91.91c-.58.58-.75 1.44-.43 2.19l.01.03c.31.75 1.04 1.23 1.85 1.23h1.29v4H21.7c-.81 0-1.54.49-1.85 1.23l-.01.03a2 2 0 00.43 2.18l.91.91-2.83 2.83-.91-.91a2 2 0 00-2.18-.43l-.03.01c-.75.31-1.23 1.04-1.23 1.85v1.29h-4V21.7c0-.81-.49-1.54-1.23-1.85l-.03-.01a2 2 0 00-2.18.43l-.91.91-2.83-2.83.91-.91c.58-.58.75-1.44.43-2.19l-.01-.03a2.018 2.018 0 00-1.86-1.23z" stroke="#fafafa" stroke-miterlimit="10" stroke-linecap="round" stroke-linejoin="round"/><path d="M15.5 11.99c0 .31-.04.61-.12.9-.08.3-.19.59-.35.85-.31.53-.74.97-1.28 1.28-.26.16-.55.27-.85.35-.29.08-.59.12-.9.12-.31 0-.61-.04-.9-.12-.3-.08-.59-.19-.85-.35-.53-.31-.97-.74-1.28-1.28-.16-.26-.27-.55-.35-.85-.08-.29-.12-.59-.12-.9 0-.31.04-.61.12-.9.08-.3.19-.59.35-.85.31-.53.74-.97 1.28-1.28.26-.16.55-.27.85-.35.29-.08.59-.12.9-.12.31 0 .61.04.9.12.3.08.59.19.85.35.53.31.97.74 1.28 1.28.16.26.27.55.35.85.08.29.12.58.12.9z" stroke="#fafafa" stroke-miterlimit="10" stroke-linecap="round" stroke-linejoin="round"/></svg>